PathFileType	4	(X/Y/Z)	..\data\2014050\dynamic\2014050_C4_04.trc
DataRate	CameraRate	NumFrames	NumMarkers	Units	OrigDataRate	OrigDataStartFrame	OrigNumFrames
100.000000	100.000000	4	52	mm	100.000000	0	165
Frame#	Time	L_IAS			L_IPS			R_IPS			R_IAS			L_FTC			L_FLE			L_FME			L_FAX			L_TTC			L_FAL			L_TAM			L_FCC			L_FM1			L_FM2			L_FM5			R_FTC			R_FLE			R_FME			R_FAX			R_TTC			R_FAL			R_TAM			R_FCC			R_FM1			R_FM2			R_FM5			CV7			TV10			SXS			SJN			L_SIA			L_SRS			L_SAA			L_SAE			L_HLE			L_HME			L_UOA			L_RSP			L_UHE			L_HM2			L_HM5			R_SIA			R_SRS			R_SAA			R_SAE			R_HLE			R_HME			R_UOA			R_RSP			R_UHE			R_HM2			R_HM5			
		X1	Y1	Z1	X2	Y2	Z2	X3	Y3	Z3	X4	Y4	Z4	X5	Y5	Z5	X6	Y6	Z6	X7	Y7	Z7	X8	Y8	Z8	X9	Y9	Z9	X10	Y10	Z10	X11	Y11	Z11	X12	Y12	Z12	X13	Y13	Z13	X14	Y14	Z14	X15	Y15	Z15	X16	Y16	Z16	X17	Y17	Z17	X18	Y18	Z18	X19	Y19	Z19	X20	Y20	Z20	X21	Y21	Z21	X22	Y22	Z22	X23	Y23	Z23	X24	Y24	Z24	X25	Y25	Z25	X26	Y26	Z26	X27	Y27	Z27	X28	Y28	Z28	X29	Y29	Z29	X30	Y30	Z30	X31	Y31	Z31	X32	Y32	Z32	X33	Y33	Z33	X34	Y34	Z34	X35	Y35	Z35	X36	Y36	Z36	X37	Y37	Z37	X38	Y38	Z38	X39	Y39	Z39	X40	Y40	Z40	X41	Y41	Z41	X42	Y42	Z42	X43	Y43	Z43	X44	Y44	Z44	X45	Y45	Z45	X46	Y46	Z46	X47	Y47	Z47	X48	Y48	Z48	X49	Y49	Z49	X50	Y50	Z50	X51	Y51	Z51	X52	Y52	Z52	

1	0	-85.11877441406251	877.126892089844	-309.7906494140626	-284.0701599121094	900.8249511718752	-245.9846191406251	-276.8887939453126	893.2410888671877	-138.5268096923828	-76.23506164550783	886.2429809570315	-97.71163177490237	-158.7950592041016	795.3830566406252	-394.7776489257814	-254.7811431884766	424.9002380371095	-340.1474914550782	-245.632797241211	422.6313781738282	-205.4311065673829	-297.1888122558594	373.8326416015626	-343.3233947753907	-248.3374023437501	350.3482971191407	-283.9403381347657	-400.9090270996095	81.55762481689455	-300.3377380371094	-392.9712219238282	83.62587738037111	-214.1211395263672	-462.1236572265626	46.07658767700196	-252.103256225586	-292.1130065917969	14.65839290618897	-218.6713256835938	-277.6070251464844	30.48893356323243	-271.5097351074219	-320.4036254882813	10.23745918273926	-323.4462890625001	-141.120849609375	780.187438964844	-2.070169925689698	-22.06856536865235	437.1106567382814	-49.19078826904298	-4.373015880584718	431.7994384765626	-189.1080169677735	-29.21023559570313	377.4934387207032	-47.28678894042969	44.05918502807618	393.8048706054689	-97.75221252441409	81.14839935302736	67.04607391357423	-75.43992614746095	100.7349548339844	93.6574172973633	-159.2875671386719	61.20549774169923	12.18582630157471	-126.7428665161133	226.6605072021485	79.03072357177736	-154.1229858398438	220.8171844482422	95.93026733398439	-99.75476837158206	196.2778778076172	62.17656707763673	-55.38185119628908	-197.1411285400391	1373.648559570313	-203.8863830566407	-285.8944396972657	1152.63427734375	-208.7169494628907	-59.96269989013673	1049.816040039063	-198.4564819335938	-89.1448440551758	1277.269775390625	-198.6316833496094	-280.4067077636719	1197.412353515625	-300.3190917968751	-240.4191436767579	1310.797241210938	-301.5215148925782	-188.0185241699219	1322.2890625	-362.2142944335938	-138.4064025878907	1321.794799804688	-369.2256774902344	-118.5763168334961	1036.701171875	-471.1282348632814	-156.6644592285157	1001.556701660156	-403.1855468750001	-138.0653076171875	986.0898437500002	-454.7703552246095	55.7579803466797	878.6896972656252	-415.5046386718751	21.35296440124512	855.7393798828127	-473.4647216796876	120.2972946166992	831.5388793945315	-409.4381408691407	53.26618576049806	791.8889770507815	-466.831268310547	-298.4143981933594	1204.715698242188	-136.5354766845703	-250.4160766601563	1308.281494140625	-124.6841201782227	-210.4119415283204	1317.552978515625	-54.23098754882814	-157.9171905517578	1317.2080078125	-38.08714294433594	-297.9075012207032	1044.53857421875	26.22089385986329	-320.2309570312501	1041.24755859375	-49.70229339599611	-334.7286682128907	1025.142333984375	-0.794661343097687	-301.9882202148438	807.6452636718752	21.11763763427735	-358.4764099121094	835.4180908203127	56.71199798583986	-327.9277648925782	724.4537963867189	20.24284744262696	-401.1708984375001	776.8421020507815	58.73024749755861	
2	0.01	-73.12254333496095	876.741638183594	-309.4089965820313	-271.5232238769532	899.4534912109377	-243.7069244384766	-263.8658447265626	891.6052856445315	-136.4682159423828	-63.25856399536134	885.496765136719	-97.2905197143555	-147.4973907470703	795.1453857421877	-393.7872924804689	-245.9083099365235	425.2413940429689	-339.9866943359376	-235.8629913330079	422.5398254394532	-205.4249114990235	-289.2984924316407	374.8606567382813	-343.1944274902344	-240.5574951171876	350.1094665527344	-284.1306762695313	-399.0372619628907	84.53150939941408	-301.1930541992188	-390.9455871582032	86.39894104003908	-214.8496246337891	-461.160125732422	50.21918869018556	-252.7368621826172	-291.9078674316407	14.67140102386475	-218.923080444336	-277.2486572265626	30.44025421142579	-271.7723388671876	-320.1572570800782	10.35565662384033	-323.5269165039063	-127.6716613769532	778.9191894531252	-1.236734032630921	-9.570882797241213	435.9706115722657	-48.53567123413087	6.577679157257082	430.0414428710939	-189.0029449462891	-16.49523544311524	376.1772155761719	-46.5503044128418	56.5889015197754	393.0863647460939	-97.49794006347659	97.41608428955081	66.9134979248047	-74.30361938476564	116.4737243652344	93.6257781982422	-158.3446807861328	77.50746917724611	12.08156299591065	-125.5160598754883	242.4848022460938	80.05379486083986	-153.6491394042969	237.185775756836	96.74981689453128	-99.05860137939456	212.7620086669922	62.56587982177736	-54.88264083862306	-186.1163177490235	1372.391845703125	-202.4960479736329	-274.4328918457032	1151.169799804688	-207.2288208007813	-48.13058090209962	1049.094482421875	-197.1808013916016	-77.87263488769533	1276.230590820313	-197.3058319091797	-269.1095581054688	1196.0361328125	-298.8981628417969	-229.3945922851563	1309.598754882813	-300.1589355468751	-176.960678100586	1321.032470703125	-360.9068298339844	-127.3150787353516	1320.637573242188	-367.8790283203126	-105.5083694458008	1035.685302734375	-469.4774475097657	-143.7527008056641	1000.369689941406	-401.7785034179689	-124.9207077026367	984.9832763671877	-453.2251892089845	68.94844818115236	878.3899536132815	-412.5522460937501	35.52075576782227	855.6170043945315	-471.0446166992189	133.5284423828125	831.566345214844	-405.6090698242189	67.68518829345705	791.8994750976565	-464.3182373046876	-286.9932861328126	1203.166748046875	-135.2268524169922	-239.1657257080079	1306.77978515625	-123.2803649902344	-199.2142333984376	1316.343505859375	-52.91798782348634	-146.805404663086	1316.103393554688	-36.68460083007813	-287.0632629394532	1043.361694335938	26.87916946411134	-309.1189575195313	1040.21142578125	-49.11707687377931	-323.8254394531251	1024.035766601563	-0.3125680387020112	-291.2722167968751	806.4447021484377	21.39037895202637	-347.9868469238282	834.3286132812502	56.79859542846681	-317.9845275878907	723.3319702148439	20.02693748474121	-390.9589843750001	776.0985107421877	58.41178512573244	
3	0.02	-60.89191818237306	876.394470214844	-308.9895935058594	-258.7441101074219	898.2024536132815	-241.4553680419922	-250.7174530029297	890.151306152344	-134.4523315429688	-50.1539649963379	884.8735961914065	-96.78885650634768	-136.0609283447266	794.972106933594	-392.7253417968751	-236.5193939208985	425.5939025878907	-339.9503784179688	-225.5514678955079	422.3032836914064	-205.5506744384766	-280.9097595214844	375.9270019531251	-343.1806640625001	-232.2592773437501	349.8019409179688	-284.5150451660157	-396.8819580078126	87.77016448974611	-302.2477111816407	-388.6188354492189	89.37509918212892	-215.7729949951172	-459.9152832031251	54.74742889404298	-253.5236053466797	-291.7380371093751	14.63425540924073	-219.1148834228516	-276.8877868652344	30.30812072753907	-271.9927368164063	-319.9010009765626	10.38961982727051	-323.6007690429688	-113.8752899169922	777.939392089844	-0.3435976207256318	3.235893964767457	435.0800781250001	-47.83477020263673	18.05224037170411	428.5979919433595	-188.6863250732422	-3.91415023803711	375.1033325195313	-45.77476119995118	69.04430389404298	392.2204895019532	-97.16592407226565	111.0963897705078	66.46563720703126	-73.31918334960939	129.9386444091797	93.06440734863283	-157.5265655517578	90.82458496093751	11.94625282287598	-124.4858932495117	255.817611694336	79.50307464599611	-153.0972900390625	251.0578002929688	96.09965515136722	-98.31719970703128	226.4085998535157	61.75291442871095	-54.4022560119629	-175.0048370361328	1371.22998046875	-200.9408569335938	-262.8058776855469	1149.776123046875	-205.6882934570313	-36.08457183837891	1048.476806640625	-195.858383178711	-66.47278594970705	1275.343383789063	-195.8588409423829	-257.7002868652344	1194.738159179688	-297.3386840820313	-218.3037109375001	1308.47802734375	-298.6226806640626	-165.8612060546875	1319.893310546875	-359.4430847167969	-116.2027587890625	1319.62255859375	-366.4184570312501	-92.79056549072267	1034.755859375	-467.721893310547	-131.1696166992188	999.3201293945315	-400.2452087402345	-112.1628341674805	984.012145996094	-451.5531616210939	81.62447357177736	877.8977661132815	-409.7405090332032	49.04365158081056	855.3272094726565	-468.6747131347657	146.1360626220703	831.278991699219	-401.9206542968751	81.36215209960939	791.6734619140627	-461.8608703613282	-275.3981323242188	1201.646728515625	-133.7710418701172	-227.7886657714844	1305.320190429688	-121.7236328125	-187.9004516601563	1315.151733398438	-51.45052719116212	-135.5419158935547	1315.04443359375	-35.14237976074219	-275.8286437988282	1042.103515625	27.73618507385255	-297.6877136230469	1039.069946289063	-48.28641510009767	-312.5131530761719	1022.80615234375	0.3919163346290589	-279.8432617187501	805.156921386719	21.82755661010743	-336.8156738281251	833.045837402344	57.04957580566408	-307.1258544921876	722.1074829101564	19.95401573181153	-379.9493408203126	775.0413208007815	58.23338317871095	
4	0.03	-48.41622161865236	876.0886230468752	-308.4988403320313	-245.7659301757813	897.1015625000002	-239.2773895263672	-237.4725341796876	888.9229125976565	-132.5106964111328	-36.92745590209962	884.3961181640627	-96.17216491699222	-124.4607467651367	794.846374511719	-391.5934143066407	-226.555892944336	425.9334716796876	-340.0630493164063	-214.6361389160157	421.8910217285157	-205.8308715820313	-271.9668579101563	377.0133972167969	-343.3023376464844	-223.3765869140626	349.4014892578126	-285.1347656250001	-394.3831176757814	91.27693939208986	-303.4766235351563	-385.9107666015626	92.55277252197267	-216.8822174072266	-458.2905578613282	59.72010803222658	-254.4355621337891	-291.6421203613282	14.5510425567627	-219.2044219970704	-276.5522460937501	30.07402992248536	-272.1275634765626	-319.6560668945313	10.34949684143067	-323.6393432617188	-99.76615905761722	777.3171997070315	0.6273924112319947	16.31777954101563	434.4514160156251	-47.0776710510254	30.05039024353028	427.5198669433595	-188.1339721679688	8.587770462036135	374.2853088378907	-44.94669723510743	81.43149566650392	391.252655029297	-96.76387786865237	122.3868560791016	65.69796752929689	-72.48600006103517	141.2548065185547	92.00093078613283	-156.840316772461	101.3367156982422	11.77428817749024	-123.6360473632813	266.8165588378907	77.41128540039064	-152.578857421875	262.6173400878907	94.0007781982422	-97.64429473876956	237.4471435546876	59.75956344604494	-54.00466918945314	-163.7851715087891	1370.190307617188	-199.2245330810547	-251.0042572021485	1148.482055664063	-204.1057891845704	-23.82583808898926	1047.9697265625	-194.4915466308594	-54.9366912841797	1274.620239257813	-194.2892456054688	-246.1656188964844	1193.549438476563	-295.6542053222657	-207.1199645996094	1307.464111328125	-296.9214782714844	-154.6923370361328	1318.897338867188	-357.8289184570313	-105.0392303466797	1318.76806640625	-364.8466796875001	-80.42535400390626	1033.927368164063	-465.8670654296876	-118.9364929199219	998.4226074218752	-398.5954589843751	-99.80349731445315	983.193054199219	-449.7635803222657	93.77697753906251	877.2161254882815	-407.0987548828126	61.88663482666017	854.8544921875002	-466.3710021972657	158.1256103515625	830.6895751953127	-398.4357910156251	94.26631164550783	791.193786621094	-459.4679565429689	-263.6164855957032	1200.187255859375	-132.1676940917969	-216.2713775634766	1303.938232421875	-120.0164642333985	-176.4494781494141	1313.996826171875	-49.82263946533205	-124.11376953125	1314.0498046875	-33.46494674682618	-264.1785583496094	1040.781372070313	28.78694915771485	-285.9133300781251	1037.839477539063	-47.22053909301759	-300.7714233398438	1021.474670410156	1.315101981163025	-267.7097167968751	803.802917480469	22.44371032714844	-324.9593811035157	831.5936279296877	57.4769859313965	-295.3439941406251	720.7998657226564	20.0503101348877	-368.1398925781251	773.686462402344	58.2130813598633	
